<svg width="24" height="24" viewBox="0 0 24 24" fill="none" xmlns="http://www.w3.org/2000/svg">
<g id="magic-wand">
<path id="icon" d="M10.4999 10.5L12.5857 8.41421C13.3668 7.63316 14.6331 7.63317 15.4142 8.41421L15.5857 8.58579C16.3668 9.36684 16.3668 10.6332 15.5857 11.4142L13.4999 13.5M10.4999 10.5L3.41416 17.5858C2.63311 18.3668 2.63311 19.6332 3.41416 20.4142L3.58573 20.5858C4.36678 21.3668 5.63311 21.3668 6.41416 20.5858L13.4999 13.5M10.4999 10.5L13.4999 13.5M8.29928 8.35722L5.99994 7.38534M11.3398 5.31499L10.4103 3M15.6454 5.31499L16.575 3M18.6845 8.35353L20.9893 7.3949M18.6845 12.6465L20.9999 13.5794M15.6418 15.6865L16.5751 18" stroke="#686B6E" stroke-width="1.5" stroke-linecap="round" stroke-linejoin="round"/>
</g>
</svg>
